/* XPM */
static char *fc61f3b466914b85f7d3ff88ea148c24OSoiVjRSLo3NOAPR[] = {
/* columns rows colors chars-per-pixel */
"64 64 255 2 ",
"   c #070A09",
".  c #150808",
"X  c #071609",
"o  c #1C170A",
"O  c #0A0C14",
"+  c #050B1B",
"@  c #050915",
"#  c #130A13",
"$  c #0B1319",
"%  c #181719",
"&  c #291B1A",
"*  c #290F14",
"=  c #142812",
"-  c #2C2A1A",
";  c #0A1426",
":  c #171B24",
">  c #0A132B",
",  c #271C24",
"<  c #341C24",
"1  c #182531",
"2  c #282529",
"3  c #372928",
"4  c #383528",
"5  c #393736",
"6  c #2D2D34",
"7  c #483936",
"8  c #593B37",
"9  c #4E342C",
"0  c #653A35",
"q  c #6E3832",
"w  c #4B1D1E",
"e  c #3A582A",
"r  c #374E31",
"t  c #3C6729",
"y  c #3E6835",
"u  c #3E7132",
"i  c #2C521D",
"p  c #58460C",
"a  c #6E5312",
"s  c #484438",
"d  c #594438",
"f  c #445C36",
"g  c #505230",
"h  c #67493A",
"j  c #6C4E36",
"k  c #436C2D",
"l  c #44652C",
"z  c #44712E",
"x  c #4A732C",
"c  c #456E32",
"v  c #4A6D33",
"b  c #4C6C3B",
"n  c #466635",
"m  c #566B37",
"M  c #467031",
"N  c #4A7234",
"B  c #44733B",
"V  c #4C733A",
"C  c #4A793A",
"Z  c #52743B",
"A  c #58753B",
"S  c #67743D",
"D  c #2D3549",
"F  c #122A47",
"G  c #4E3C42",
"H  c #344552",
"J  c #345173",
"K  c #4A4947",
"L  c #584845",
"P  c #595647",
"I  c #595855",
"U  c #4A5151",
"Y  c #674A46",
"T  c #774A48",
"R  c #675746",
"E  c #655A57",
"W  c #74534C",
"Q  c #4B6844",
"!  c #536A43",
"~  c #497646",
"^  c #577748",
"/  c #547A56",
"(  c #527258",
")  c #6B6549",
"_  c #776946",
"`  c #697846",
"'  c #78774C",
"]  c #66645A",
"[  c #776C58",
"{  c #7C7B53",
"}  c #787654",
"|  c #627955",
" . c #485569",
".. c #5A6368",
"X. c #586778",
"o. c #4C6B73",
"O. c #6C6B6B",
"+. c #686866",
"@. c #716C6A",
"#. c #74736D",
"$. c #7A766A",
"%. c #666B72",
"&. c #736C72",
"*. c #6C7376",
"=. c #757474",
"-. c #7A7A75",
";. c #767B7B",
":. c #7B7C7B",
">. c #777676",
",. c #6B716A",
"<. c #875752",
"1. c #85764B",
"2. c #827C54",
"3. c #847D5A",
"4. c #887958",
"5. c #937958",
"6. c #8A6D4F",
"7. c #877B66",
"8. c #927967",
"9. c #827C7A",
"0. c #90706B",
"q. c #8F7425",
"w. c #588448",
"e. c #528350",
"r. c #69875A",
"t. c #798454",
"y. c #679357",
"u. c #6F935B",
"i. c #558569",
"p. c #588A77",
"a. c #4E8267",
"s. c #779368",
"d. c #788E72",
"f. c #7EA46B",
"g. c #59833B",
"h. c #A2872A",
"j. c #8A825A",
"k. c #97825F",
"l. c #8A8163",
"z. c #928566",
"x. c #86857B",
"c. c #8D9178",
"v. c #A4956F",
"b. c #87A779",
"n. c #89A972",
"m. c #B79C57",
"M. c #CCB66D",
"N. c #E7CC7F",
"B. c #3C6CAC",
"V. c #3C67AD",
"C. c #3366B6",
"Z. c #3A66B2",
"A. c #366AB5",
"S. c #396AB3",
"D. c #366CBA",
"F. c #3A6DBB",
"G. c #3366B9",
"H. c #3C73BC",
"J. c #3B74B8",
"K. c #3D70AF",
"L. c #3A5785",
"P. c #4A6687",
"I. c #476C98",
"U. c #547293",
"Y. c #7B7C81",
"T. c #667990",
"R. c #4474BC",
"E. c #4778BA",
"W. c #4A72A6",
"Q. c #506898",
"!. c #3D7AC3",
"~. c #376EC1",
"^. c #4475C2",
"/. c #447BC4",
"(. c #4B7DC5",
"). c #4B7DC8",
"_. c #447CC9",
"`. c #517EC4",
"'. c #837F81",
"]. c #598C86",
"[. c #5B8E96",
"{. c #5D9298",
"}. c #5C928A",
"|. c #768994",
" X c #5D93A8",
".X c #5885BB",
"XX c #5E96B6",
"oX c #5884AF",
"OX c #6496BA",
"+X c #6D90AF",
"@X c #73A5BC",
"#X c #3E83C7",
"$X c #4C82C5",
"%X c #4C83CA",
"&X c #4584CA",
"*X c #5384CB",
"=X c #5B8CCB",
"-X c #5789C8",
";X c #5C97C7",
":X c #498AD3",
">X c #568AD2",
",X c #5B94DB",
"<X c #5B95D6",
"1X c #4B93D7",
"2X c #618EC8",
"3X c #6192CB",
"4X c #6498C8",
"5X c #7498C9",
"6X c #6499D7",
"7X c #739AD6",
"8X c #68A5DC",
"9X c #75ABD3",
"0X c #5999E3",
"qX c #4F97E3",
"wX c #639BE4",
"eX c #67A2E4",
"rX c #71B2E5",
"tX c #5FA2D5",
"yX c #848382",
"uX c #8A8986",
"iX c #978C8A",
"pX c #97948A",
"aX c #989795",
"sX c #838B97",
"dX c #A4998E",
"fX c #97AF8D",
"gX c #A7A499",
"hX c #A3B998",
"jX c #B5A896",
"kX c #8795A5",
"lX c #959AAB",
"zX c #90A5B5",
"xX c #B7ACA6",
"cX c #BAB5A9",
"vX c #ACAEB2",
"bX c #C5BDB0",
"nX c #A8C59C",
"mX c #B1DA9D",
"MX c #B8D5A9",
"NX c #B0CAA5",
"BX c #AFD29C",
"VX c #CBC5B9",
"CX c #C9D5B7",
"ZX c #C8E6BA",
"AX c #C4E0AF",
"SX c #F6DD9A",
"DX c #8CB2D1",
"FX c #A9B8CB",
"GX c #93BDE5",
"HX c #A1C5E4",
"JX c #D2CFC3",
"KX c #D4EBC8",
"LX c #D5F0CD",
"PX c #E6FDDA",
"IX c #EEFDE7",
/* pixels */
"-X-X-X-X-X-X*X*X*X*X).).).).).).(.(.^.^.^.^.R.R.R.R.H.H.H.H.H.D.F.F.F.F.F.F.F.D.A.S.V.B.B.V.Z.C.C.C.C.C.C.C.G.C.C.C.C.C.C.C.C.C.",
"-X-X-X=X=X-X-X-X*X*X).).).).).).(.(.^.^.^.R.R.E.E.R.R.H.H.H.H.F.F.F.F.F.F.F.F.D.F.A.V.V.V.V.A.A.A.A.A.A.C.C.C.C.C.C.C.C.C.C.C.C.",
"=X=X=X=X=X-X-X-X*X*X*X*X).).).).(.(.E.E.E.E.E.E.E.E.E.R.R.R.R.R.F.H.F.F.F.F.F.F.F.A.A.S.S.A.D.A.S.S.S.S.Z.Z.Z.Z.Z.Z.Z.Z.V.V.V.V.",
"=X=X=X=X=X=X-X*X-X*X*X*X*X*X).).`.`.E.E.E.E.E.E.R.E.R.R.R.R.R.R.H.H.H.H.H.F.F.F.F.F.A.A.F.D.D.D.A.S.S.S.S.S.Z.Z.Z.S.V.V.V.V.V.V.",
"2X2X2X3X=X=X-X-X-X-X*X*X*X*X).).`.(.(.(.(.^.E.^.^.^.^.^.^.^.R.R.H.H.J.J.H.H.F.F.F.F.F.F.F.F.F.F.D.D.D.D.D.D.D.A.A.A.A.S.A.S.S.V.",
"2X2X3X=X=X=X=X=X-X-X-X-X*X*X).).*X$X).).).(././.^.^.^.^.^.^.^.R.H.H.J.J.H.H.F.F.J.F.F.~.~.~.F.D.D.D.F.D.D.D.D.D.A.D.D.D.S.S.S.S.",
"2X3X3X3X3X=X=X=X=X>X*X*X*X*X*X*X$X$X$X).)._.(./././.^.^.^.^.^.^.R.H.H.H.H.H.F.H.F.J.F.~.~.~.F.S.D.D.D.D.D.D.D.D.D.S.S.S.S.B.B.B.",
"3X3X3X3X3X<X=X>X>X>X>X>X*X*X*X*X%X$X).$X)._.(./././.^.^.^.^.^.^.^.R.H.H.H.H.H.F.J.J.H.F.F.J.K.B.K.K.K.K.K.K.B.B.B.B.B.B.B.I.I.I.",
"3X3X3X<X<X<X<X<X,X<X>X>X*X*X>X>X*X%X).).%X).(.%X$X^.R.^.E.^.R.R.^.^.H.H.!.H.R.R.R.J.H.D.!.R.I.W.W.I.W.I.I.I.I.I.I.I.P.P.P.P.P.P.",
";X3X3X<X<X,X,X,X<X>X>X>X>X>X>X>X).>X>X%X$X%X&X/.R.^.).$X)./.^.^.^.^.H.H.!.!.R.R.R.J.H.H.A.E.I.[.T.P.P.P.P.P.X.X.X.X.X.X.X.X.X.X.",
";X3X3X<X<X,X,X,X,X,X,X<X>X>X*X>X>X>X%X%X$X$X$X&X%X&X$X_.!._.&X_.^.^.H.H.!.!.R.E.E.K.A.H.S.2XU.X.T.X.X...X.X.X.X.X.X.%.%.%.%.%.%.",
"XX2X4X3X6X,X,X,X>X0X,X>X>X=X>X>X>X%X$X*X*X*X$X$X$XE.$X&X&X&X&X!.).^.R.H.!.!.^.R.K.R.H./.K.5XT...|.%.....%.%.%.%.+.%.%.O.O.O.O.O.",
"XXOX4X4X6X6X0X0X,X,X<X<X<X3X=X-X-X=X3X2X-X2X2X.X-X.X-X$X$X$X%X%X).(./.!.!.!./.R.E.J.!.H.S.5X|...|.%...+.%.%.%.%.%.*.=.*.&.O.&.&.",
"XXXXOX4X3X6XwX0XwX,X6X6X=X=X2X2XOXoXW.Q.L.J J J J P.W..X-XE.E.E.).)./.#X#X!._./.&XJ.H.H.R.OXsX] :.*.+.*.*.*.*.*.;.Y.Y.:.>.&.&.&.",
" X XOX4X3X6XwXwX,X,X6X6X3X7X7XOX+XX.J H 1 ; ; > 1 1 D J J J W..X`.).&X#X#X#X_._.H.H.&X&XR.`.kX] :.=.+.;.;.;.Y.Y.Y.Y.Y.:.=.&.&.&.",
" X XOX2X4X6X6XwXwX6X6X6X4XDX5XP. .D : : : : : % : O $ + > F L..X`.%X&X#X#X#X&X(._.&X!./.E.@XvXI -.=.+.:.;.;.;.;.;.;.Y.:.>.&.&.=.",
"[. XXXOX4X6X6X6X6X6XwX6X5X+XX.H : : : : : % % % , & & % $ 1 L.E.*X%X&X&X:X#X$X/._.&XH.E.U.FXcX] #.:.+.;.;.:.;.;.:.:.:.Y.>.&.=.&.",
"[.{. XXX4X6X6X6X8X,XwX7X+XkXY.6 : : : $ % , 6 5 L d 7 4 2 > J E.%X:X:X:X&X&X$X$X&X!..XoX|.|.gX$.O.:.+.-.;.:.;.;.:.:.:.'.:.&.&.O.",
"].[. XXX;X4X3X3X8X6XwX7X+XkX>.2 $ : : : 2 2 2 5 L Y W Y I  .I..X%X:X:X:X&X:X$X$X:X%XOX+XkX|.uX9.+.yX+.-.;.:.;.;.Y.Y.:.Y.:.=.>.=.",
"].].{. XXX4X4X6X6XeXwX7XzXsXI : % : : 2 2 6 5 G L Y T Y E %.oX-X>X&X:X:X:X:X&X&X&X%X+X+XsXvXgXx.] uXO.>.:.:.:.;.:.:.:.:.:.=.&.>.",
"p.].[. XXX;X4X8X<XeXwX5XFXuX5 , : , 2 3 7 G L E E Y W Y E X.U.4X<X:X:X1X1X:X:X:X:X*XoXkXY.bXVXpX] uX,.=.:.:.:.;.;.:.:.Y.Y.=.O.O.",
"a.p.].{. XOX4X4X8X,XeX5XvXiXK 2 6 6 5 G 7 7 7 7 7 3 9 < 2 U U.oX-X,X:X:X1X:X:X:X>X.X+XlX9.xXVXdX] yX>.,.-.;.:.;.:.:.:.:.'.:.&.>.",
"a.a.p.}. XXXOX4XtX,XeX7XvXiXP 7 3 2 2 2 & & & & & & & # % 6  .J I.;X>X1XqX:X,X>X.X X|.gXx.jXVXxX] -.:.O.-.-.:.-.:.:.:.-.yX-.O.@.",
"/ a.p.].[. XOXOX;X8XeX5XFXuXE L 3 3 3 7 7 d L L L 8 3 3 & % G D J 3X<X1XqX1X,X-XOXzX|.pX8.jXbXcX+.=.yXO.:.-.d.:.:.:.:.:.yX=.U K ",
"~ / i.p.].{. XOX;X;XeX5XFX9.I Y W T 8 L d d h R Y L G 7 o % % D Q.3X<X0XqXqX,X2X+X+XsXvXiXdXVXcX@.O.uX,.#.:.-.:.:.-.-.x.'.-.K K ",
"~ ~ a.i.].[. X XXXtX8X7XzXyX+.0.<.q 0 Y Y 8 d h W Y Y 8 & & & D P.7X6X0XqX0X,X5XkX|.sXvXiXdXbXVX-.+.x.+.=.yX:.:.:.:.:.:.'.9.K K ",
"B ~ / i.p.].{. X XXX6X9XDXzXyX8.<.q 0 8 Y 8 d h Y T W W 0 9 8 I  .5X6X0X0X0X3X5X|.uXpXjXdXc.bXbXuX+.yX+.O.-.-.:.-.:.-.-.:.yXI K ",
"c B ~ / i.p.}.{. XXXtXrXDXDXaX0.<.q q 0 h 9 9 8 Y W T T <.<.T L T.5X6X0X0XeX6X5X|.iXuXpXjXc.bXVXuXI x.=.#.:.-.:.-.:.-.-.:.yXE K ",
"k M ~ ~ / i.p.}.{. X9XrX9XDXaX0.<.<.<.<.h 0 9 0 Y Y Y j W W Y I 5X8X8XeX6X8X6X5XkXyXaXpXxX$.x.bXgX] -.$.@.:.-.-.:.:.:.:.:.9.+.K ",
"x z B ~ ~ i.p.p.}.{.9XrXrXDXlX0.W T h h q 0 9 8 8 h j j j 8 9  .9X8X8XrX8X8X8X9XkXiXaXiXxX$.$.cXgX+.$.=.+.#.=.-.:.:.:.9.-.-.+.K ",
"x z u ~ ~ / i.p.}.}.9XrXrX9XaX8.c.4.h h 0 8 9 7 L 8 0 j j h 5 X.rXrX8XrX8XrX8X9XkXaXpXiXjX@.K I iX] #.yX,.=.=.-.-.:.-.:.-.-.#.K ",
"x k u y B ~ / i.p.].5XGXrXGXvXxXcXc.Y Y d 9 3 5 7 9 h j h R K +X9XrX9X9X9X9XXX+XlXiXdX$.x.$.K =.gX#.+.x.+.#.=.-.-.-.-.:.-.d.:.K ",
"k x u B B n / / i.p.@XGXGXGXFXJXxX0.h R d - < < < < 9 d Y E +.zXrXrX9XDXFX|.X.vXvXaXuX@.L I s =.JX$.] yX+.=.$.$.$.$.9.:.>.;.d.I ",
"x k N c ~ ^ ^ ~ e./ @XHXGX5XHXsXxX0.h h d 9 3 < , * & & 4 K 2 +XGXGXDXzXVXcXJXVXbXx.+.E P #.5 K VXc.] yX=.,.$.$.-.-.=.:.9.uXd.-.",
"k x k ^ NXLXKXnXr.( o.H F D D 6 &.E d h h d 9 3 & # : : ; ; H DXHXDXFXFXcXbXVXcXbX@.P P L c.K I cXpX] d.#.,.-.+.I #.:.O.#.7 5 s ",
"x t N l nXPXLXLXr.y i X + + + @ , G L Y h h h 7 4 ..vX|.U.+XGXHXFXFXlXgXxXJXVXVXgXI P $.P x.I U vXgX] #.#.+.@.] % % I yX5 . 7 3 ",
"u M c V s.NXnXhX/ Q Q X O $ + ; $ 5 L d h h h 7 K *.+X+X+XOXoXoXT.zXaXx.xXVXJXVXJXx.] $.I uX+.5 aXcX] $.9.] +.=.I O $ K U & o o ",
"B y v v n e f.f.Q Q Q =   O $ @ $ : K L h j 8 d s U  .J J J J J H %.aXxXcXVXJXJXKXgX] #.E yX+.% +.JX] ] 9.E ] +.U $ $ $ I K o . ",
"u B N n ! KXZXLXNXe ^ 4 X $ $ + @   5 L Y Y d L % :  .o.o.o. . .U 6 $.jXjXbXVXCXVXdX[ $.@.@.K # K cX$.E [ P I s 5 % : % & o - R ",
"B t N l s.MXl e ZXr.! r X O   O O O % 7 Y h L 7 % + ;  .H U U 5 r 4 d ) v.z.c.gXxXpX[ ] ] 5 % O # K L s s 7 5 % % & - - j ' v.v.",
"v N N t u.ZXb r.KX| n ! =   O O $   # 4 d R 3 6 6 + + D U K s P r K ! P c.) P s 4 s s 9 4 s -   # # 2 s s I %.% . - v.M.M.m.1.j ",
"c v t ^ y hXPXLXfXf b ! r X   @ O O . & K K & 2 D @ ; : =.uXc.c.] ] P ) [ P 4 4 - s d 7 d 9 & . # # % 4 ,.uXU   . 6.SXM.h.q.a a ",
"Z c M t M n ^ | c.LX^ b ^ X X @ O #   . K U : + 1 > @ + 5 :.x.x.K 4 s P [ 7.7.pX7.7.0.0.0.9 w * * .     K ,.: # Y v.N.m.h.a p a ",
"l V z N M V b.LXLXhXnXe b y X @ O # #   6 6 $ @ 1 1 + $ $ K uXx.E d [ [ [ ) R ] R W 6.<.T q T w . . o o o - % 4 j j m.m.a p p p ",
"x k k M V V hXnXNXfXAXe Z Q 1 X $ O O O : $ @ @ : : + + O 2 -.[ ) j _ j g h R ) ) ) 6.j 0 h h w 8 9 s j ) ) } 3.4.5.1.1.1.S ' ' ",
"t x c V n b y e fXZXr.r.v n Q =   O O @ : 6 @   : : @ $ O 5 P R ) _ _ _ _ } 3.3.z.4.5.5.5.5.6.8.8.4.z.3.3.2.4.4.z._ z.k.4.j.j.j.",
"t z B v N k Z ~ e Q MXIXn.l V Q X X O + + D $ O         % E ) _ ' ' 2.1.j.j.l.7.2.5.5.6.5.5.6.4.4.3.j.2.l.l.} [ } 4.4.j.j.z.z.l.",
"C t B v k N k n b.PXPXd.ZXm v b Q X   $ @ D $ O     O   o [ j.2.2.j.2.2.4.4.2.4.4.4.5.5.k.5.z.2.2.j.2.3.l.7.7.7.z.4.2.2.2.3.3.l.",
"M M M c M N k l NXnXs.s.b b.| n ! b =     1 6 @ $ $       R 3.2.2.' 4.1.' 4.' 4.5.1.4.2.4.3.{ 3.{ 2.{ ' 3.2.{ 2.j.j.2.{ { t.{ { ",
"M M z z M N c n V MX^ e NXPX^ f b v ! -   % H ; + + O O . P 3.4.4.4.4.4.z.4.1.4.1.2.j.3.j.{ ' { { { { ' 2.2.{ { ' ' { t.t.t.' ` ",
"z M M M c N v v c ^ b NXKXZXb b.M t v ^ r X 1 > + > ; @   s 4.7.4.' 2.4._ ' l.2.2.j.3.' _ ' ' { ' ' ' ' { { ' ' t.{ ' ` t.t.j.n.",
"z M M M c c v v Z l u.nXr.MXnXAXf.w.t B ~ ( U 6 ; ; ; @ . s 7.} 3.3.{ ' 2.3.{ { j.' ) ' ` ' ` ` ' ` ` ` ' ' ` ` ` ` t.s.n.n.f.u.",
"M M M M M c c N n v Z e u.PXZXy s.PXb.n V b Q Q Q 4 = X   4 } g ` ' ' t.t.' ' ` m m ` A m ` S S ` A S ` ` ` ` ` ^ u.n.f.u.y.y.y.",
"M M M M M c c N V V c n s.AXl e fXKXMXr.n n c b b b ^ f e f ! e l A m A A m A l A A A v A Z A A A A A A ` ^ ^ ^ u.u.u.y.y.y.w.B ",
"M M c M M c c M k c c v c n n r.PXd.f hXLXMX^ l l l V c Z N b Z A l v n l b m Z l hXn.N x x g.x Z A A A A A A w.y.y.w.w.w.w.w.w.",
"M c k M M M c M N k N c v N t nXnXr fXPX^ hXMX^ f.k c v t k V t e l ^ n r.^ f MXs.MXw.t N N k N N Z V N Z N Z w.w.w.~ w.w.~ C w.",
"M M M M M M M M M M M M c c c v b e NXfXi / LXr.LXQ AXs.^ b.f b.nXs.f NXCXLXb.fXLXPXhXb n V c v v N v N V N Z Z V V C C C C B C ",
"M M M M M M M M M M M M c c c c k N u.KXb.KXnX( KXfXIXb.NXhXfXKXfXLXd.NXhXNXfXQ PXb.AXZX! n b v c k c c c N N N N N N N N N M M ",
"M M M M M M M M M M M M M M M c N V e y.mXb.c ^ KXKXhXCXKXQ KXs.- fXMXd.PXLXfXr nXhXe r.b V b c M z c k c c c c c c c c c c c k ",
"M M M M M M M M M M M M M M M c t N C t t t M t LXfX| IXb.r AXNXb AXfX^ LXr.KXr.^ ^ n n n v c N M z M M M M c c N N N N v v v v ",
"M M M M M M M M M M M z M M c c Z k k z x z N c ^ n r.nX! l w.mXZXmXV V f.V t V c n V c C k z N c c M M M M c c M N N N N c k k ",
"M M M M M M M M M M M M M M c c k c k N k z k N l n n e b k k t V e c n t k N C k M z k t C u t M M M M M M c c M M M M M M z z ",
"M M M M M M M M c c c c v c c v v v V c c c N n V c Z Z t C k N v V v V n V k t N k N M M k C k N N M M M M M M M M z M z z z z ",
"M M M M M M M M c c c c v v c v V k c V B B B v v k N k c M B u B V v n V c c V N k k N k M t c c c c c c M M M M M z z z z z z "
};
