/* XPM */
static char *aeb9f36c0039402caab44295c2eff787AlKyC5XdnPPsH21K[] = {
/* columns rows colors chars-per-pixel */
"64 64 251 2 ",
"   c #05050C",
".  c #09060C",
"X  c #0B090E",
"o  c #080505",
"O  c #140A0A",
"+  c #060A12",
"@  c #0C0C14",
"#  c #0D0D1A",
"$  c #090914",
"%  c #120D14",
"&  c #170E17",
"*  c #0E111B",
"=  c #0D1016",
"-  c #131216",
";  c #13131C",
":  c #1A141D",
">  c #1B191D",
",  c #1B1616",
"<  c #11120F",
"1  c #221B1C",
"2  c #241816",
"3  c #2D1610",
"4  c #342419",
"5  c #29221C",
"6  c #141522",
"7  c #191622",
"8  c #151923",
"9  c #1B1B24",
"0  c #1B1C2B",
"q  c #15182A",
"w  c #1D1D33",
"e  c #0E1224",
"r  c #221D24",
"t  c #221E2A",
"y  c #291E25",
"u  c #211F37",
"i  c #1D212C",
"p  c #1E2127",
"a  c #1D2335",
"s  c #232124",
"d  c #24232B",
"f  c #2A252C",
"g  c #2C292B",
"h  c #2A2425",
"j  c #332C2C",
"k  c #3A2A26",
"l  c #232433",
"z  c #2C2A33",
"x  c #262838",
"c  c #312D33",
"v  c #322D38",
"b  c #333235",
"n  c #35333A",
"m  c #3C3A3D",
"M  c #3A3537",
"N  c #323136",
"B  c #443B3A",
"V  c #4D362F",
"C  c #43271C",
"Z  c #58453A",
"A  c #63483C",
"S  c #3D3B43",
"D  c #373843",
"F  c #272841",
"G  c #1E2F45",
"H  c #423D43",
"J  c #354759",
"K  c #2D506C",
"L  c #444244",
"P  c #4A4644",
"I  c #4A474A",
"U  c #554D4A",
"Y  c #4A4A53",
"T  c #545254",
"R  c #5C5B5C",
"E  c #595658",
"W  c #555251",
"Q  c #635D5B",
"!  c #655955",
"~  c #6E534A",
"^  c #66615D",
"/  c #77655A",
"(  c #5D5C61",
")  c #585B67",
"_  c #485665",
"`  c #625D63",
"'  c #566570",
"]  c #656363",
"[  c #6A6564",
"{  c #6C6A65",
"}  c #6B6A6B",
"|  c #67666A",
" . c #726D6A",
".. c #726A66",
"X. c #7A746E",
"o. c #75716E",
"O. c #6E6C71",
"+. c #626C76",
"@. c #726E73",
"#. c #6D7377",
"$. c #747373",
"%. c #7B7672",
"&. c #7D7975",
"*. c #7E7B7B",
"=. c #75777B",
"-. c #5C605F",
";. c #855B4B",
":. c #88665A",
">. c #976C58",
",. c #A47859",
"<. c #987568",
"1. c #827B74",
"2. c #837D7B",
"3. c #857A76",
"4. c #8C6F65",
"5. c #A57968",
"6. c #B17E6B",
"7. c #835637",
"8. c #7F807B",
"9. c #85817D",
"0. c #8B837D",
"q. c #89857B",
"w. c #9B847A",
"e. c #98917F",
"r. c #A98578",
"t. c #B48772",
"y. c #C29077",
"u. c #797C82",
"i. c #6A7889",
"p. c #567587",
"a. c #817E81",
"s. c #7C848B",
"d. c #798795",
"f. c #6698B4",
"g. c #739EB7",
"h. c #73A4C3",
"j. c #848384",
"k. c #8A8583",
"l. c #8C8A85",
"z. c #84858A",
"x. c #8C8B8C",
"c. c #86898D",
"v. c #938C85",
"b. c #928E8B",
"n. c #978984",
"m. c #95918C",
"M. c #9B948C",
"N. c #9B9589",
"B. c #8B8D93",
"V. c #858C95",
"C. c #8C929C",
"Z. c #8B9295",
"A. c #949493",
"S. c #9B9592",
"D. c #9C9A94",
"F. c #92959C",
"G. c #9C9B9B",
"H. c #96999C",
"J. c #8E908F",
"K. c #A5998B",
"L. c #A39B93",
"P. c #A39E9B",
"I. c #A69B94",
"U. c #B19285",
"Y. c #9DA19C",
"T. c #ACA293",
"R. c #A5A29C",
"E. c #ABA39B",
"W. c #A9A698",
"Q. c #B4AB9B",
"!. c #B4A89A",
"~. c #BBB29F",
"^. c #B7B19E",
"/. c #A5A08E",
"(. c #8E96A4",
"). c #929DAC",
"_. c #959AA3",
"`. c #8D9EB2",
"'. c #9AA2A9",
"]. c #95A3B4",
"[. c #9AAABC",
"{. c #9AA6B8",
"}. c #97AEBE",
"|. c #A5A4A3",
" X c #AAA6A4",
".X c #ACAAA5",
"XX c #ACACAA",
"oX c #A5A7AA",
"OX c #B4ACA3",
"+X c #B5ACA8",
"@X c #AEB1AA",
"#X c #BBB2A3",
"$X c #B4B2AD",
"%X c #BBB4AC",
"&X c #B9B5A7",
"*X c #A7ACB5",
"=X c #ACB3B9",
"-X c #B3B4B3",
";X c #B9B6B2",
":X c #BCBBB5",
">X c #BCBBBB",
",X c #B3B8BB",
"<X c #B3ADB1",
"1X c #A19FA0",
"2X c #C49788",
"3X c #CCA999",
"4X c #C4B8AB",
"5X c #C3BBB3",
"6X c #C2BEBB",
"7X c #C9B9B9",
"8X c #CBACA4",
"9X c #BBC1BC",
"0X c #C3C2BD",
"qX c #CBC4BB",
"wX c #D1C7BB",
"eX c #9CADC3",
"rX c #9AA9C1",
"tX c #9DB3CB",
"yX c #9DB3C8",
"uX c #9FB7D1",
"iX c #A1ADC3",
"pX c #A3B5CC",
"aX c #A9B7C6",
"sX c #BBBDC2",
"dX c #B5BCC8",
"fX c #A3BBD3",
"gX c #A9BAD4",
"hX c #B9BED4",
"jX c #C2BDC4",
"kX c #BDC3CB",
"lX c #BBC3C7",
"zX c #ABC3D9",
"xX c #B7C6D8",
"cX c #BED1D9",
"vX c #BED5E7",
"bX c #C4C3C3",
"nX c #CBC5C3",
"mX c #CDCACB",
"MX c #C8C9C9",
"NX c #D3CAC6",
"BX c #D7D2CC",
"VX c #C5CAD4",
"CX c #CCD4DC",
"ZX c #D8D7D5",
"AX c #C6D3CE",
"SX c #E4D7D0",
"DX c #E8E4DC",
"FX c #D2DBE7",
"GX c #C5EDFE",
"HX c #CCF1FC",
"JX c #EAE6E3",
/* pixels */
"5X%X5X%X%X5X0Xm.P h g d z l l x 0 0 7 0 t z n d s s d f f d d l l l l l d s g s j P..X+X&XE.%XE.OXE.Y.oXoXXX:X] b =.| ` ( Y | O.",
"n.n.n.N.L.L.R.R.T , d d t d l l 7 0 7 7 7 f c s 9 9 9 t d d d i l 0 0 i d d d s [ $X+X;Xk.0.2.v.l.l.l.G.>XXXP - I ] Y S S Z.=.O.",
"n.n.v.0.n.P.E.+XXXI > > d t 7 d t d t t d z c g f g g z z z z z x x v z v n z r $.*.&.%.Q ^ ! ! ! E R O.( d b L L Y Y ) +.u.O.$.",
"^ Q ..[ Q o. .[ $.Q b c z d v d z z z v n n n m S m S D D D D D D D D D b f m | | {  .%. .2.2.1.3.k.=.s.z.z.| } #.O.z.V.s.+.$.O.",
"P.S.R.R.D.P.|. XP.+X;X;X| d c t 7 7 9 t d t y f y y t t t d t d f d 9 t d d I x.H.A.P.l.A.%.j.%.2.|.H.Z.B.s.R ( =.u.u.i.J J =.#.",
"b j g h j j j m P B m M j n H f t t d r r f f t f f z z z z z z d z z g g f f s h g > h , , 1 5 1 1 I Y Y Y T | u.u.d.G ' xXZ.#.",
"r s g H I U P L L P I P U I I H n c n n n H H H S S m m H H S n S S S I m E x.x.A.D.H.P.G.|.$X|.G.oXu.s.s.s.V.#.#.s.(.G }.HXC.=.",
"b z Y A.G. X6XnX6XbXbX6XnXnXZXP.L c H T E R ( | | ] ` ( ` ] ( T R R R R L =.BX0X-X$XXX$X$XbX|.| @.O.| ) i.u.s.#.=.s.`.J g.vX*Xs.",
"n n n b M m T *.j.l.l.v.S.P. X|.] I E R R | O.| O.@.@.O.@.$.O.| } | [ { | l.G.D.A.A.A.A.G.A.l.| $.z.s.s.s.s.V.#.#.c.{.J h.GX=XJ.",
"s b c n I m L =.k.9.&.%. . . .$.$.] n L | -.] $.} } | | } } | R | [ [ E R [ { { { ^ [ [ Q |  .R u.c.s.s.d.d.C.=.=.C.rXJ h.GX=XA.",
"9 ; % s c L m M m L R  .&.2.%.%.2.2.j.| I E } | | | | [ | { | ^ R ^ ^ [ l.m.b.v.l.P.x.{ %.Q Z ] A.x.c.c.V.d.H.u.j._.tXJ h.GXaXY.",
"d s > s > s g U T U ^ { k..X+X;X.X$X0XR.=. .} $.$.=.&.$.$.%.&.&.&.&.%.1.D.D.b.l.v.0.l.X.[ ^ ^ &.oXB.c.V.V.V.'.c.A.oXpXK h.GXlXR.",
"n L T I L R R E Q R ^ Q { 9.&.2.9.l.2.l.m.*.8.j.j.l.l.l.l.l.l.l.9.0.9.l.0.0.9.9.1.1.1... ...Q k.;XA.Z.Z.C.C.oXA.D.*XgXK h.GXlXE.",
"R R @.T m T R ^ [ ^ { [ {  . .%.%.X.1.2.%.9.b.9.x.x.m.m.S.M.m.m.m.m.v.N.q.q.q.q.q.1.9.1.1.1...k.>XH.H.H._.F.=XG.R.=XzXK h.GXlXW.",
"j.$X-X[ $.l.^ [ [ { X.&.9.9.9.l.v.q.m.v.b.D.m.D.S.D.D.D.S.S.D.D.D.M.N.D.D.D.L.N.L.N.v.0.3.0.1.M.6XG.'.H._._.-XR.|.-XzXK g.GXAX!.",
"j..X:X$.D.XXo. .o.&.1.1.0.v.m.b.M.L.S.L.M.M.R.L.L.R.E.L.b.v.m.I.T.E.E.R.E.T.T.T.N.I.N.N.N.n.1.L.bXoXoXG.'._.,X.X+X-XxXK g.GXAXQ.",
"k.$X6X .S.;X%.o.1.9.k.v.m.M.L.L.R.P.E.I.T.T.T.Q.E.Q.N.3.^ W ! W q.^.Q.^.Q.T.Q.T.!.T.T.K.K.n.q.S.bXXXXX|.oXoX>XXXOX>XxXK f.GXAXW.",
"m.$X6X&.P.;X&.1.2.0.v.m.L.I.I.T.E..XOXE.!.~.!.T.!.N.Z k 2 4 4 4 V / Q.~.^.~.~.Q.!.T.T.K.K.K.v.L.>XoXXXXXoXoX>XXX.X-XxXK f.GXAX@X",
"b.$X0X&.P.:X9.1.v.n.M.M.I.E.E.#XOXOXOX!.Q.~.~.4X#X! 3 4 k 4 4 3 4 V K.4XQ.4XQ.#X~.!.!.K.K.K.N.L.bX=X-X*X*X*XkX=X;X9XcXK f.HXlX@X",
"m.;XnX9.R.0Xv.9.v.m.I.L.E.E.I.Q.#X#X#X~.#X~.Q.#X4X4.k C Z A A C 4 4 T.4X#X4X^.#X^.Q.Q.T./.N.e.D.lX=X,X,X=X=XkX=X-X,XvXK f.HXcX@X",
"D.XX0Xj.R.:Xl.k.m.m.L.L.E.OXOX4X~.~.Q.Q.#X4X4X%X4X8X~ V ~ <.;.~ ~ A 4X#X%XOX%XOXOXQ.!.W.T.K.N./.9X,X9X,X=X=XVXdXsXlXFXK f.HXcX=X",
"D.$XnXj.D.:Xm.v.M.M.L.I.E.Q.OXQ.~.~.~.&X&X#X&X5X%XNXn.:.:.>.>.5.U.e.4X4X5X5X5X:X&XOXW.T././.K.D.9XlX9X,XdX=XVXdXsXdXvXK f.GXcXdX",
"2.|.nX*.l.%Xm.0.N.D.E.&XOXOX%XOX!.~.Q.#X&X&X:X6X+X7XOXr.6.5.y.2X!.4X4XL.N.D.l.m.XX:X6X%XQ.W.N.%.,XVXMXlXCXVXCXVXsXVXFX' d.GXcX=X",
"9.|.BXm.D.5XL.D.D.N.1.^ B k U U N.qXBXBXZXmXD.U c h 4 ~ r.;.>.y.3XSXwXk , , > > m =.XXmXZXDXBX$XZXCXoXu.O.Y T I #.'.=X_ p.HXFXlX",
"D.S.j.{ o.{ ! 5 2 , o P ..X.5XNXSXBXZXZXj.T - - : , 2 3 4.>.6.t.3XNXSX2.5 s s d p : z L _.oX>XJXZXZXmX:XoX( R ] ] m * e a i.+.) ",
"..P h o o o o ^ 1.q.0.qXDXDXZXBXmX|.R Y p ; 8 9 7 r , C <.;.;.t.3XSXSXSXQ > f 9 x 0 l 6 7 @ T >X.XD.:XBXnXmXBXbX>Xx.E ) _ _ Y I ",
"2 P W E Q W / :XNXDXZXmX>X:X*.| O.T - 9 9 0 l 7 0 : y ! U.:.>.t.8X3.L.6XBXj.* i 0 0 0 0 0 0 6 7 9 % Y bX<XG.mXmXBXmXnXmXlX,X;XXX",
"B %XNXZXDXDXDXBXZXBXnXXX XoXL @ ; 7 i d i 8 6 8 t z : y n.w.U.U.#XU , b E ( z v 0 0 0 u w w 0 0 d ; S z.u.*.z.A.z.;Xk.l.-X@X:X0X",
"X.E.%X5XqXL.R.BXR.o.@.( E T z d f 9 i 7 0 d 0 d l 0 r y 3.U U V 0.b 1 s s 9 F.dXl 6 6 0 l w 0 l l f i i 9 9 ; - - $.<XP.oXnXBXmX",
"BX5X%XE.!.Q..X5XI O - @ - ; 7 0 8 9 9 ; ; ; d x 7 9 7 : a.B o I b., 9 s 9 l Y dXl 6 0 6 l x a 0 8 l i l l 7 i 9 - } <X+X+XG.jXmX",
"&XE.L.N.N.&X%XS.U , f t d d l 0 i p ; 9 9 : g 9 t 0 t ; E u.- ] | @ n 7 8 d x _.n $ 7 0 0 l l x x a G q 0 l 6 6 ; ] mXNX;X X>XbX",
"M.L.m.M. XBX5XS.U < 9 > d 0 8 0 i 7 7 9 > 9 d 9 9 ; t 0 n _.; c.S 0 t 9 9 f f z.Y 0 S Y z l 9 0 l x a a x x a a 8 ) u.2.9.$.O.=.",
"9.k.j.2.x.G.H.j.I 9 9 f p i i i 0 i ; 7 % ; c t t t 7 d r =.b z.x t 7 t y g g @.ZXCXCXFX| @ t 7 7 i i q l w l a i i 8 ; ; 9 7 ; ",
"- - - : 9 9 9 7 f 9 d d 9 d p ; 6 8 7 + % 1 y y 1 2 1 h & [ 1...& : : 2 2 1 2 U DXCXVXVX#.  * 7 * 9 0 0 w w x l x a 0 8 0 i l l ",
"- @ % , > ; > s 7 9 d 9 7 d i 8 0 7 @ O , k / 4.! C O 3 O V w.w.~ A V 4 A :./ ! sXVXxXxX#.+ 0 6 0 0 w x F u F x x x a a a x x x ",
"@ @ @ % ; 7 7 > 7 7 9 8 8 8 7 0 9 ; X o o ~ 8X8X3XU.:.:.<.r.2X2X3X3X3X:.t.3X8X!.jXhXgXxX+.+ 8 0 0 q 0 a u x F w w a a a a a w w ",
"@ @ @ @ = ; - + ; * ; ; 6 * # ; - X U U Z <.U.r.t.2X3X3X2X2Xt.6.7.,.y.t.y.y.U.!.jXhXgXaX[._.H.A.*X_ e w x w q q q 8 q q q q w a ",
"@ @ = - = @ @ @ # # * # # * # # + > m.I.K.w.r.t.t.t.t.5.6.6.5.;.;.,.t.t.y.y.t.!.sXhXpXiX'.#.l.R Y v * 6 7 q 7 7 6 6 8 8 q q w l ",
"@ @ @ = @ @ @ * * # * # # ; # * = + { 1.n.U.r.<.r.r.5.5.5.;.:.<.>.,.5.<.5.5.r.I.sXdXiXaX,XXX%Xj b l * 7 7 9 7 7 7 8 9 0 0 q w a ",
"@ @ @ + @ = # @ * $ # * # # # # = + oXZXI.3.A 4.~ A A V V / <.:.:.:.:.4.:.4.3.OX,X=X,X*X:XBXE.j E D # - 7 9 ; 7 0 0 7 q q 6 q w ",
"+ @ @ + @ - + * $ # # ; # ; * ; = = u.bX+X/ 4 w.4 O O O O U ! k k V B B k 0.+XXX<X=XoX-X+X:X2.c J i * 6 6 ; 6 6 q q q q q w q 0 ",
"= @ @ @ @ @ + * # # # - * ; # $ *   ( >XZX3.k ..1 1 , 1 , r : : 1 & % : t j.oXoXXXoX<XoXXX|.R f D i # # 6 0 0 6 6 0 q q q q 6 e ",
"+ + + + @ * @ + @ + $ @ @ @ * @ # $ S O.@.B j [ , r : 7 t 7 6 t : : 7 0 x B.oXoX*XoXoXXXj.D D l S z : ; : - * 6 6 6 e e 6 7 7 - ",
"+ + @ @ * * @ @ + @ % % % @ @ % @ $ n L & & j  .d t 9 ; 7 7 0 7 : r 0 0 n '.XXY.|.XX|.<X=.n ) 0 n s < X - - % 7 6 6 e 6 7 > > - ",
"9 8 i i 7 =   . + @ . . X . . %   . M Q 1 O y | % o @ @ +   % X O % % $ d x. X@X-XoXXXXX*.` ) v L  .k.k.k.x.B.Z.C.C._.c.j.A.D.D.",
"9 9 9 ; n | ` | | @.@.=.*.x.j.2.k.*.^  .Q U Q %.R ` |  .*.%.3.2.9.b.G.G.P.;X5X0XbX>XbXmX0X0XjXmXnXBXBXBXZXZXZXCXCXFXCX*XA.$X&X#X",
"+ * - X b =.L b m M M B H b.jXbX;XmX0X;X0X:X0X6X9XbX0X6XnXnXnXnXmXnXnXnXNXwXwXqX0XBXbX0XwXwXwXwXNXnXnXmXmXMXVXVXkXkXCX*Xj.R.I.&X",
"; ; ; - b } c b g g j j , &.;X+X:X$X:X;X;X;X$X;X-X$X;X;X%X4X5X5X:X0X0X6XwX5XqXqXnXnXnXnXqXqXwXNXmXmXmXmXVXVXCXcXcXxXVX'.R  .1.5X",
"* - 9 X s L M b g j g g 1 .. XE.OX+X$X$X$X$X-X-X-X-X$X;X;X:X5X5X:X0X0XnXnX6X0XbXbXbXbXbXbXbXbXMXMXVXkXkXxXxXxXxXzXxXzXaX'.%.X.2.",
"* ; ; o b %.[ U P P M 1 h ..S.L.E.E..X.X.X.X+X$X$X$X$X$X$X%X;X;X:X0X:X:X:XbXbX>XjXbXbXlXlXkXkXkXkXkXkXxXxXzXzXzXzXfXxXxXoXM 2 1 ",
"* - = . g 2.{ ] ] Q g m j ..L.M.S.D.P.R.E.|.|. X X X X.XXXXX$X$X-X:XbX>XmXXX>XsXsXlXbXkXkXkXkXkXxXkXkXzXzXzXzXzXzXfXzXxXF.s h P ",
"* - ; X h $.] { ] B h Q j Q S.l.b.M.S.D.P.R.R.R.|.|.|.|. X XXXXX-X-X>XlXoX} sXsXsXsXsXdXdXdXdXdXdXdXdXgXgXgXfXfXuXzXzXxX| , y M ",
"$ @ - o f  .` Q T 1 P R j Q S.v.v.n.m.M.S.D.D.G.G.P.P.R.|.|. X XXX=X,X-.I S $.,X,XdXdXdXdXdXdXdXdXgXaXaXgXgXfXfXfXzXgXaXD s M j ",
"+   +   r I B B h s H M > W m.0.0.l.v.n.m.M.S.S.D.D.D.H.G.G.1X|.'.oXF.9 9 ; =.kX=X=XaXaXaXaXaXaXgXaXaXaXfXfXfXfXuXfXgXiXx s H c ",
"@ + + @ 1 g y f > M c g , W M.2.0.0.0.l.v.b.m.m.A.A.A.A.A.H.H.H._.'._.- *   J *X*X*XiXaXaXaXaXaXaXaXaXpXpXfXuXtXfXpXgXiXi 9 H P ",
"  @ . X > c s > z c b f y U l.2.3.3.9.0.k.l.b.b.b.b.b.b.A.A.A.H.F._.*XY   = D *X{.{.*X*XiXiXiXiXpXpXiXpXpXpXtXtXtXtXgXiXl d c I ",
"+ @ X X > c t r m I z g h U v.3.3.3.3.2.0.k.k.k.l.l.x.x.x.B.B.B.F.C._.F.V.C._.'.).].{.{.{.[.iXeXeXeXeXeXtXtXtXtXpXpXfXrXx f c m ",
"+ . @ . > f > d n H z z s I k.1.1.1.1.1.2.0.k.k.k.k.k.j.z.z.c.x.B.Z.F._.F._.(.(._.).).].{.{.[.[.eXeX}.}.eXtXtXtXtXtXfXiXv d f c ",
"+ . @ . 9 y t z c z f z s I k.1.%.%.X.%.1.3.2.9.9.j.j.a.j.j.z.z.z.B.V.F.F.F.C.C.(.(.(.).].].].[.[.[.[.[.eXeXeXeXeXtXpXiXv t t t ",
". @ . . ; > t z d 7 s d , P k.1.X.X.X.X.&.1.2.2.9.2.2.2.2.a.j.j.j.B.z.B.B.B.V.Z.C.C.(.(.).].].[.{.{.{.[.rXeXeXeXeXeXpX*Xx 7 t t ",
"+ + . . - z : 9 7 - 9 > X m 0.1.%.X.X.X.%.1.1.1.2.2.1.*.*.*.a.j.z.x.z.B.B.B.x.B.B.C.(.(.(.).).].].].].].[.rX[.[.[.rXiX{.x - 9 t ",
"@   @ . 9 Y ; 7 7 - ; ; X B k.X.%.X.X.X.%.&.1.1.1.1.&.&.*.*.u.a.j.j.j.j.j.z.j.z.V.z.C.C.(.).).).].].'.].{.{.[.[.[.[.iX{.v @ 7 7 ",
"@ . @ X t Y 9 9 7 ; - > > B v.X.%.%.X.X.X.&.1.1.1.1.&.&.*.*.*.2.$.%.S.x.J.A.A.H.H.s.V.C.(.).).).).].'.].].].].].{.{.[.{.D - 7 : ",
". @ o . 7 z 9 ; ; 7 7 d > j 0.&.&.%.X.%.&.1.1.1.1.1.&.&.*.*.*.*.{ 2.bX6XbXbXbXmX-Xz.V.C.C.(.(.).).).).).].].].].].].{.{.D ; t 7 "
};
