/* XPM */
static char *_9aa0804adc64110a7b23a7b72b3e7a3Pz8UrhZ1NtmIZyOq[] = {
/* columns rows colors chars-per-pixel */
"64 64 256 2 ",
"   c #050806",
".  c #080C16",
"X  c #0B1215",
"o  c #0C141C",
"O  c #091518",
"+  c #11151C",
"@  c #131B1D",
"#  c #161717",
"$  c #0E1112",
"%  c #17221D",
"&  c #2B241E",
"*  c #0C1522",
"=  c #0E1924",
"-  c #0C1828",
";  c #131522",
":  c #131B24",
">  c #141C2B",
",  c #1A1D2A",
"<  c #181927",
"1  c #151D32",
"2  c #0E1B31",
"3  c #281C25",
"4  c #15212C",
"5  c #1B222B",
"6  c #182426",
"7  c #192636",
"8  c #112437",
"9  c #26262A",
"0  c #242936",
"q  c #2A3437",
"w  c #363838",
"e  c #33312D",
"r  c #583B36",
"t  c #463233",
"y  c #6C383A",
"u  c #4C483C",
"i  c #74463E",
"p  c #1C2A43",
"a  c #1D3246",
"s  c #2A3748",
"d  c #343A46",
"f  c #2C3B52",
"g  c #2A344B",
"h  c #4B3C45",
"j  c #3A4548",
"k  c #394657",
"l  c #2C4259",
"z  c #3C4C67",
"x  c #3C506C",
"c  c #484849",
"v  c #57584A",
"b  c #464B57",
"n  c #4B545C",
"m  c #575758",
"M  c #504D4B",
"N  c #645B59",
"B  c #785A56",
"V  c #6D4F49",
"C  c #5C6459",
"Z  c #64655A",
"A  c #7B685A",
"S  c #495568",
"D  c #575B66",
"F  c #47546E",
"G  c #675E62",
"H  c #5C6465",
"J  c #596676",
"K  c #5C707B",
"L  c #636364",
"P  c #686969",
"I  c #777768",
"U  c #646C77",
"Y  c #697478",
"T  c #777978",
"R  c #706E6A",
"E  c #3B4039",
"W  c #865A54",
"Q  c #8A6D5A",
"!  c #867867",
"~  c #8E746E",
"^  c #9F6F6A",
"/  c #7C8379",
"(  c #7E806B",
")  c #87835D",
"_  c #8A8668",
"`  c #928969",
"'  c #878778",
"]  c #948C75",
"[  c #9A9678",
"{  c #95916A",
"}  c #A59A79",
"|  c #A98D72",
" . c #A9A47B",
".. c #B6A47E",
"X. c #576F8B",
"o. c #697987",
"O. c #747B84",
"+. c #687D95",
"@. c #4A6D9C",
"#. c #3D5981",
"$. c #8C7E83",
"%. c #7A8385",
"&. c #7A8492",
"*. c #6D8595",
"=. c #6E8FB4",
"-. c #79A6D8",
";. c #75AEEA",
":. c #7CB6ED",
">. c #7BB5F2",
",. c #7DBAF3",
"<. c #79B7F6",
"1. c #759AC9",
"2. c #7EC0FD",
"3. c #878987",
"4. c #999789",
"5. c #848B92",
"6. c #8C9797",
"7. c #989B97",
"8. c #938F89",
"9. c #A49A87",
"0. c #A69B95",
"q. c #B39388",
"w. c #9BA39B",
"e. c #9FA287",
"r. c #ABA488",
"t. c #B6A988",
"y. c #B9B48C",
"u. c #A2A49C",
"i. c #A9A699",
"p. c #B8AC96",
"a. c #BCB595",
"s. c #ADB09D",
"d. c #8E9CA8",
"f. c #9AA6A7",
"g. c #88A3BA",
"h. c #96ACB7",
"j. c #9BB4BB",
"k. c #ABACA3",
"l. c #A6A9A7",
"z. c #B3ADA5",
"x. c #ACB3A9",
"c. c #B2B2A4",
"v. c #B4B4AC",
"b. c #BAB8A7",
"n. c #A6AEB7",
"m. c #A9B6B8",
"M. c #B4B5B3",
"N. c #BBBDBC",
"B. c #B8BAB6",
"V. c #B3ACB3",
"C. c #A09FA4",
"Z. c #C3AA8B",
"A. c #C9B68C",
"S. c #C6AC95",
"D. c #C4BB9D",
"F. c #C8B798",
"G. c #D3B39A",
"H. c #C5B9A4",
"J. c #D5BCA5",
"K. c #C5BDB7",
"L. c #C3ACA2",
"P. c #C29C92",
"I. c #BBC2BB",
"U. c #B2C2B5",
"Y. c #C8C19C",
"T. c #D6C59B",
"R. c #CAC4A7",
"E. c #D6C8A6",
"W. c #C6C4B9",
"Q. c #D5CCB8",
"!. c #D9D3B9",
"~. c #D7D1B1",
"^. c #E5D9B8",
"/. c #E4D5AA",
"(. c #EBE2BE",
"). c #8CA7C3",
"_. c #96AAC6",
"`. c #9AB5C7",
"'. c #99B9D8",
"]. c #87AFDA",
"[. c #A6BAC7",
"{. c #B7BCC7",
"}. c #A6BDD6",
"|. c #B5BED4",
" X c #A2AFC0",
".X c #84B5EC",
"XX c #89B7E9",
"oX c #92BBED",
"OX c #94BBE5",
"+X c #83BCF3",
"@X c #8BBBF2",
"#X c #85BCF8",
"$X c #94BDF1",
"%X c #8EA9CD",
"&X c #9BC1DC",
"*X c #BBC9CB",
"=X c #B7C4C7",
"-X c #A9C4DB",
";X c #BCCBD5",
":X c #B2C3DA",
">X c #BCCBDB",
",X c #B5C6D6",
"<X c #BDD0DA",
"1X c #ACC2CC",
"2X c #9AC3E5",
"3X c #87C1F8",
"4X c #97C4F5",
"5X c #8EC0E8",
"6X c #A8C8E6",
"7X c #BCCDE3",
"8X c #B4CCE6",
"9X c #B8D3E9",
"0X c #B9D5F3",
"qX c #A9CCF5",
"wX c #C4C5C3",
"eX c #C4CBCC",
"rX c #C9CAC7",
"tX c #C9D2CA",
"yX c #D7D6C8",
"uX c #C3CCD4",
"iX c #C3CEDB",
"pX c #C8CCD6",
"aX c #CCD2D4",
"sX c #C4D2DC",
"dX c #CCD3DD",
"fX c #CAD6D9",
"gX c #D3D5D4",
"hX c #D4DADB",
"jX c #DADDDC",
"kX c #D5D7D8",
"lX c #D1CCC4",
"zX c #E4DDC7",
"xX c #E2DDDD",
"cX c #DBE1DD",
"vX c #DAE0C6",
"bX c #E5E4D8",
"nX c #F1ECCF",
"mX c #C4D2E2",
"MX c #CBD4E2",
"NX c #C8D8EA",
"BX c #D3DCE3",
"VX c #DBDEE3",
"CX c #D5DBE8",
"ZX c #C7DCF3",
"AX c #CCD5EC",
"SX c #DCE3E3",
"DX c #DBE4EB",
"FX c #D4E2E8",
"GX c #C9E2FA",
"HX c #D4E2F2",
"JX c #D8E7F8",
"KX c #D7E9EF",
"LX c #E3E6E6",
"PX c #E6ECF3",
"IX c #EBF1F3",
"UX c #E1DDE1",
/* pixels */
"Y %.o.+.-X0XqXqX$XoXXXoXoX].].].-.=.=.=.@.@.@.#.#.x x F F F z z b b n b b n m M m m M m m b n n m N N P L D D D m c M c h c c c ",
"U %.o.+.'.6X6XqX4X$XoX4X4X4XqXqXqXoXoXoXXXXXXX].1.1.=.=.=.+.X.X.X.J F x z z b b b b b b n n n b m L L H P H D L P P L G G L L L ",
"K *.+.+.'.6XOX$X4X$X@X$X4X$X4XqX4X@X.X:.;.>.+X;.+X.X.X.X.X.X.X.X.X-.-.-.-.1.=.=.X.X.J F S S S b n n n n S S n D m D N L L m L T ",
"X.+.+.*.'.6XOXoX.X.X@X@X$XoXoX$X$X+X+X:.;.;.>.>.>.>.>.;.;.<.<.>.;.>.+X,.,.#X3X4XoXOX6X8X:X|.{.n.h.&.*.*.o.X.J S D H D m n n n H ",
"o.+.o.+.'.OXOXoX@X@X@X@X.XXXXXoXXXXXXX@X+X.X+X3X3X3X#X>.>.>.>.;.XX4X4X.X;.;.:.;.-.].'.8X>XMXCXiXZX8X'.&X6X'.'.`.:X:X[.h.=.=.*.X.",
"U +.o.+.'.'.'.OXOXoX@X@X@X.X.X.X.XXXXX@X3X+X+X3X+X+X>.>.<.<.<.,..X4X4X@X.X@X3XXXOXqX0XZXHXPXPXuX[.8X}.-X0X6X6XZXJXJXJXJX0XqXqX6X",
"U O.O.*.|.8X6X6XOXOXoX$X$X@X#X#X#X#X+X#X3X3X,.,.#X,.>.>.<.<.<.<.<.,.,.:.:.3X4X4X6XZXNXNXDXPXIXBXiXHXCXmX>X,X|.:XNXNXZXZX6X'.OX4X",
"U o.o.%.uXHXHXZX9X8X6XOXXXXX@X#X#X#X#X,.#X3X#X3X#X,.,.#X#X#X<.<.<.<.<.,.+XXXXX'.`.[.iXdXVXLXLXLXLXVXPXDXCXPXJX;XAXHX9X}.'.2X2X5X",
"U Y Y 5.eXVXVXCXBXCXZX0X6XOXXXXX.X+X+X#X#X3X+X:.:.+X+X:.,.,.<.#X>.>.,.:..XXXOX6X6X:XiXBXgXjXjXxXbXxXbXLXLXDXBXsXHX>X7X-X}.&X2X5X",
"U o.Y 5.N.gXgXkXjXSXKXHXZX8X2XOXXX@X@X:.:.:.+X:.:.:.:.:.#X3X<.>.+X+X3X3X4X4X4XqXGXZXAXBXhXjXjXxXjXjXLXDXFX;X;XsX,X>XZXZX0X&X2X2X",
"K o.o.5.B.tXrXrXgXkXVXPXPXHXNX9XOXXXXX@X3X+X+X3X+X3X3X,.<.<.<.2.3X+X@X+X.XXXXX'.'.-XmXsXdXgXkXVXKXJXJX7X9X-X9XGX0XGXGX0X0X6X2X&X",
"K o.o.6.=XhXgXgXtXaXgXkXBXCXCXHXqX2X'.OXOXXXXX@XXXXXXX@X#X+X,.+XXXXXXXOXOX2X6X-X}.:X>X{.iXBXBXCXHXZX8X'.'.'.'.-X}.}.8X8X9X8X8X6X",
"K o.o.6.{.BXBXCXdXMXhXdXpXdXBXCXJXZX8X}.'.6XqXqX0XqXqXqXqX2X'.2X6X-X-X-X,XNXFXBXuXdXMX;X>X:X-X-X0X6X_.'.'.'.'.0X9X}.7X,X>XNXiX>X",
"U O.o.6.n.>X>X7X>XmXMXMXMXdXdXdXCXCXAXNXmXNXZXZXZXGXJXJXHX7X>X9XNXHXHXZXmXsXBXBXsXBXPXJXGX-X-X6XGX0X}.6X'.2X6XGXGX7XAXsXMXPXPXDX",
"P T %.d.[.7X8X-X}.}.8X7XmXmXiXuXiX>XmXZXZX7X:X:X,XiXMXDXPXDXBXdXBXHXZXZX8X'.-X6X0X8X9XZXNXmX,X:X-X-X'.&X'.2X6X6X-X>XCXMXBXBXDXSX",
"P T T 6.[.NX8X}.6X}.6X7XZXAXMX;X;X,X|.:X>X>X,X|.|.uXuXuXdXhXVXSXCXCXNXZX0X'.].'.'.'.'.}.}.NXmXiX<X-X[.}.-X6X6X-X,X<X;X;XhXhXLXSX",
"P T T d.{.HXHXNXmXmX|.|.iXmXiXMXJXAX7X>XmXMXMXMXMXiX,XNXmXsXMXDXPXdX>XNX9X8X-X6X8X:X,X,X>XsXsXBXDXdXuXsXhXhXhXhXDXDXhXkXaXeXSXIX",
"P %.3.C.n.dXMXMXMXMX>X;XmXiX;XmX7X7X>XiXsXdXMXCXMXCXZX[.o.J D Y &.{.MXmXNXZXNX7XmXmXmXMXFXFXBXFXDXSXjXhXkXgXgXkXaXrX{.N.N.=XgXjX",
"R $.3.C.l.pXuXiXiXsX;X;XiX;X;XiX:X>X>XsXsXpXdXBXdXCX;Xd 7 : 0 w 0 D uXDXAXHXHXHXHXHXDXDXDXDXfXuXhXVXSXSXjXjXhXgXhXhXaXaXaXhXSXSX",
"P T 3.l.l.uXeXeXuXsXiX;X>X>X>XmX>X:X,X;XuXuXdXdXCXCXO.+ 0 9 3 t h h G {.DXuXdXdXdXBXBXBXSXSXhXuXaXfXhXjXSXcXcXjXjXSXSXSXjXjXcXcX",
"L %.6.f.f.*X=X*X=X=X,X|.|.|.|.|.-X`.`.1X,X;XsXdXMXpXh 9 h t 3 t r t M l.gXaXaXaXVXLXLXVXLXLXjXkXkXaXaXgXgXgXgXkXcXLXLXjXhXjXjXcX",
"H %.6.f.l.uX=X*X*X;X;X;XiXiX,X|.[.[.[.1X,X;X;XdXBXwXh N B V B V Q q.N 8.LXkXgXaXaXgXkXkXjXxXUXUXjXhXhXjXkXgXgXkXjXjXLXjXcXSXjXjX",
"D T 6.f.n.hXuX;X*X*XuXiXdXdXpXuX;X;XuXpXaXaXpXaXDXN.h $.W B B W ~ L.9.v.LXcXjXSXSXSXxXxXbXxXxXxXVXjXjXcXbXbXbXbXjXkXjXjXcXLXcXcX",
"m T 6.f.f.sX>XsXsXsXmXmXsXMXMXdXMXMXBXBXVXVXCXhXVXN.G ~ B B W B ~ L.0.v.LXcXSXFXFXFXjXjXLXbXkXkXhXaXeXeXgXcXLXSXgXeXeXeXeXaXaXhX",
"M T f.f.h. X[.[.`.'.'.'.-X-X-X}.:XiXAXCXCXHXHXCXCXaXT A r r W A V ! 4.W.LXBXFXHXFXFXFXFXDXSXSXBXBXBXBXBXFXSXSXSXFXDXDXFXFXFXKXFX",
"c P 6.d.f.d.g.g.).).g.).).g.=.g.g._._._.}.}.[.,XdX7.R ~ r r B B t B 0.v.hXuX<X7X,X<XsXsX<X;X*X*X;X;X<X<X;X;X=X=X,X1X1X,X,X,X,X[.",
"j H 6.d.h.g.g.).).).g._.).`._.).)._._._._._.h.j.=XR ~ ~ V W ^ S.W ^ 0.8.N.n.[.[.`.`.`.h.h.h.h.h.`.j.j.h.h.h.h.h.h.g.g.g.g.g.g.g.",
"j Y 6.d.f.f.h.n. Xn.[. Xn.n.{.n.n.j.m.m.n.[.=X=XwX9.B ^ W W ^ G.| P.q.z.rX{.=X[.|.[.j.j.j.j.j.j.h.h.h.j.[.[.j.h.h.`.`.`._.).).).",
"w Y 6.6.7.7.l.k.b.i.p.p.p.r.t.r.p.D.H.H.Q.Q.p.r.J.J.^ ^ Q W Q q.^ P.q.K.lXN.B.m.m.n.l.m.U.U.m.[.m.m.m.1X=X=X=X,X1X1X[.`.`.[.[.`.",
"d T f.l.u.4.9.r.F.t.Z.A.Z.A.Z.Z.A.T.E.F.F.y.t.S.J.G.G.^ i i y W Q q.J.E.R.c.e.4.8.' ' ' 3./ / %.6.6.6.6.6.6.f.m.m.[.[.j.`.[.[.`.",
"q Y 7.7.4.' ] ] } ..Z.Z.| t.q.S.G.Z.a.D.D.D.F.Z.G.G.G.Q V V V W Q | A. .}  .[ [ [ [ [ ] ' ' I I I R I I I I I T 6.f.m.=X=X=X=X=X",
"q %.f.7.i.r.p.t.t.| ..t.G.J.H.J.G.J.R.R.D.r.} p.G.J.^.~ B Q r Q | ..D.D.t. .[ { ) { } r.t.t.r.4.[ ] _ _ _ _ I I I I ' w.M.B.I.tX",
"q %.u.7.r.p.R.G.G.S.Z.S.J.F.S.S.D.F.D.T.F.y.~.zXH.W.H.! V r & r ` ] T wXlXW.s.W.b.] a.r.r.r.t.t. .}  .[ } ` ] ] _ ! I N I I I ! ",
"9 %.7.4.r.H.E.E.J.S.G.S.F.F.L.S.a.E.F.E.~.D.W.W.W.K.m r ~ V u ! p.v j 5.C.M.wXLXgXw.4.9.r.t.D. .`  .{ { ` _ ) ` ] _ ` } 9.p.9.] ",
"e 8.w.4.0.b.H.S.p.Z.J.t.a.R.R.H.E.E.y.t.[ i.x.6.Y b 9 e B A Q ~ B 3 b J S D U &.f.=Xk.p.Q.W.R.r.} y.} ` _ { t.y.y. .y.t.a.r.p.t.",
"q 6.w.7.r.H.H.F.E.F.T.F.F.Y.E.Y.T.A.y.a.7.%.k 0 7 f 5 # M B V B t , F F b k a p k {.rXz.K.b.R.H.D.a.t.{ ) ` y.y. .t.t.} ] ] ` ] ",
"j 7.u.u.r.R.E.T.F.A.T.T.T.F.E.F...t.r.( j q 8 8 a a 7 < e V V V 9 0 F l f g a f f U gXbXbXzXnXR. . .y.a.[ [ 9.b.9.p.b.i.z.K.b.p.",
"M l.l.i.r.D.F.F.T./.A.A./.T.T.T.F.~.I % : 8 8 8 8 2 7 s 3 h V V < 1 f g 7 7 p p l k N.yXR.R.nX~.t.y.Y.D.D.[ ! i.i.0.z.i.z.0.0.0.",
"v w.i.s.i.H.H.J.~.S.Q Q y.| Q } D.4.w 6 4 2 1 2 2 0 1 S < $ h 3 < 7 f p 8 7 a p g s 3.b.a.Y.^.(.R.y.t.[ R.[ A ] ] 4.9.s.i.i.4.i.",
"Z u.i.i.i.H.Q.zXS.L.H.H.H.p.p.H.R.I 9 7 2 1 > , , > 7 o.d * ; ; > p g 2 7 7 p p a k Y b.a.t.t.y.y.D.a.y.R.} ] y.! [ [ ! i.H.s.i.",
"H w.l.u.s.lXbXb.] 4.8.v.3.T P 0.yXR 6 7 1 > < < < , : &.J . - ; 7 p 7 4 8 7 2 1 7 s H W.R.A.t.t.y.D.a.y.Y.} } R.r.] r.[ ] ] b.b.",
"C f.x.w.k.w.4.' v v m R m P U B.B.c : 0 > ; < < < < = J J - > - 0 0 7 4 7 7 - 1 2 s n v.R.F.F.Y.F.F.y.y.Y.} } ^.D.r._ ` [ 9.] 9.",
"C u.u.u.B.' Z P T R R R R 3.' z.3.e , , , > o < < , : k o.> * > 0 , > 4 7 5 * > > 0 n v.D.} t.y.t. .t. .a.{ ` a.R.p.H.! 4.r._ [ ",
"C s.k.k.M.3.R R I ' ' ' ' ' 4.i.3.9 9 ; < , . > > > > 7 &.0 . 7 0 > > > 7 : o ; - f S 7.p.r.y.r.{  . .[  ._ _ r.r.! } H.9.] [ r.",
"Z v.v.k.z.b.W.Q.Q.yXzXzXzXzXzXIXl.; , , ; > * - > > = > 6.b . q 1 1 1 > 1 * * ; 1 f z &.B.9.9.r.4.i.r.a.~.R.y. . . .{ a.Y.r.] ! ",
"N v.v.c.z.yXbXbXbXyX!.!.Q.zXH.lX3.: , : o : * - 2 > - o O.b o d > > > > 2 * * ; p f z +.V.K.yXb.c.W.b.yXnXzXnXzXR.y.{ Y.a.a.4.I ",
"v c.v.v.v.v.u.7.7.4.4.4.4.0.3.7.b 7 5 O @ @ . - > > - . b b 0 s = : : : * . @ @ 4 7 z o.T ! c.W.u.c.i.c.c.u.7.4.i.i.8.i.W.c.lXv.",
"v c.c.c.B.u.4.u.u.l.k.l.v.k.v.N.k 8 4 : 6 @ . o > ; ; + d U k 0 = : O : X . # % = a l o.C.7.4.i.7.u.u.u.k.k.v.M.B.N.wXwXK.wXK.wX",
"v c.B.v.x.v.k.k.k.c.c.s.k.K.k.wXb 8 > : @ @ X O : + ; . 0 &.k - = o : + $ $ # + * > k o.uXtXrXW.W.rXW.W.W.wXW.W.K.rXN.N.rXrXwXwX",
"M B.c.B.I.k.k.k.s.s.s.s.z.W.v.N.s 8 4 > : @ X X $ 9 +   : J s . * * o $ q w $ + = = > J uX=XwXW.wXwXW.wXwXK.B.B.M.l.7.8.3.R Z c ",
"u c.B.v.B.B.u.x.k.k.0.u.u.v.I.V.0 4 5 : : @ X $ $ $ . . . 0 8 * * o . . c c . + 4 > . b uX{.M.l.7.6.3.T L M c w 9 # #           ",
"v v.B.B.x.x.N.M.M.M.v.M.x.x.N.5.0 5 , : : @ # e w @ w 9 ; * > 8 > * o + q w : + o 4 7 s j q 9 # 9 5 @ X + $     X @ % e u C v v ",
"u s.v.M.l.l.M.x.M.M.x.x.x.M.=X5.0 5 , : @ + 9 m m c c 9 , > 0 5 > > : , 9 5 5 : : * 7 j     $ $ q d c n H Y %.w.f.x.x.I.W.Q.b.e.",
"u c.B.7.7.l.x.N.M.B.M.M.B.V.n.O.5 5 , , @ X q P P P 9 . + : 5 > - 7 : > 5 : , , > * 0 Y T L Z R l.eXaX*X=XfX=Xf.f.w.wXtXyXyXQ.[ ",
"u v.k.w.w.7.7.3.3.3.T L m c j w 5 0 5 < @ X 9 c L H @ + : : : : * > : : , : ; : : = 7 O.VXwX' T l.eX=Xx.m.U.Y @ q j I.cXyXlXyXW.",
"e M w w e 9 @ # & 9 9 & & # # q 9 0 , : + O + @ q 9 o < : : > o = o : : : : : ; = 4 0 Y f.N.L T w.I.B.m.m.=X5.D Y n m.wXwXlXW.W.",
"$   $ $   # # $ & e u u v R 3.c 9 0 5 : : : : O + o o ; : > > = o 4 o : : : : : : o j n.3.7.8.R w.eX=X*XuXfXf.Y Y k 6.aXN.W.W.lX",
"$ 6 % 9 w E Z I Z Q.!.!.zXbXbXt 9 9 : : 4 : > : : * * * * = = = = 6 : : : = = : = . U M.3.8.4.P 3.hXkXuXaXhXf.q b 5 %.jXwXB.k.i.",
"X q q H L / s.I R.nX^.~.^.zXQ.w 9 0 : 5 5 : : : : : : : * * * = @ @ = : = > * = = q 6.6.8.' u.! R l.B.tXaXeX*Xf.n.l.l.w.k.I.b.Q.",
"O 5 c C Z ' I r.nX^.E.~.zX^.!.] 9 0 , 5 5 > 4 : : > : : * o o o o o = 4 4 q 7 7 7 j 6.5.8.3.W.k.T T 7.7.6.3./ Y H c v C / U.yXvX",
"@ q C C Z ( [ nX(.E././.^.H.nXb.9 9 5 5 5 5 5 5 5 > > : : : = @ O o > 4 7 f s s j d Y O.3./ v.lX8.3.3.M e c C P T / w.x.U.v.c.U.",
"X q m Z Z ' nX(.T.E./.(.^.!.nXQ.c 9 9 5 5 5 5 5 > : : : : : : o O = > 4 8 s f s f d J 5.7.7.4.gXf.7.l.l.M.I.tXeXtXtXeXB.x.l.w.3.",
"# e Z Z Z [ nX~./.E./.^.R.nXyXzXT 9 9 : , : : 5 : ; o . . X X X @ : 4 7 8 g f f s s U uX{.rXK.wXeXtXeXeX*Xm.m.f.6.&.&.o.U J U J ",
"$ e m Z Z [ !./.E./.^.E.E.nXQ.lX8.9 < X : + : 5 5 , ; o o o O @ o = : 7 1 7 f f f d n uXeXwXwXN.n.l.6.%.O.Y Y U J J J J X.J K J "
};
