/* XPM */
static char *_4b37ae1d77c4c89df0b55718acf3e29KOxZ90yTGD6zy2Kq[] = {
/* columns rows colors chars-per-pixel */
"64 64 251 2 ",
"   c #0B0505",
".  c #170806",
"X  c #16130C",
"o  c #1B1816",
"O  c #080B1C",
"+  c #271B18",
"@  c #27150D",
"#  c #27241D",
"$  c #362419",
"%  c #1A1C23",
"&  c #11142F",
"*  c #271E25",
"=  c #2B2423",
"-  c #292928",
";  c #332D2C",
":  c #362928",
">  c #33332D",
",  c #39342C",
"<  c #272936",
"1  c #343432",
"2  c #3B3435",
"3  c #3C3A35",
"4  c #3D3C3A",
"5  c #373839",
"6  c #322E34",
"7  c #1D2226",
"8  c #413D3B",
"9  c #463C38",
"0  c #4E362A",
"q  c #492A1A",
"w  c #3C413D",
"e  c #45433D",
"r  c #49443B",
"t  c #57483B",
"y  c #58422D",
"u  c #6D4C38",
"i  c #252B49",
"p  c #2B324A",
"a  c #353A47",
"s  c #252D54",
"d  c #2C3454",
"f  c #2C355C",
"g  c #2E3A5D",
"h  c #293356",
"j  c #323B5D",
"k  c #333757",
"l  c #312E44",
"z  c #2D3862",
"x  c #333C63",
"c  c #383E67",
"v  c #343D73",
"b  c #201F41",
"n  c #453C4F",
"m  c #3B4358",
"M  c #3B424B",
"N  c #354264",
"B  c #3B4364",
"V  c #3C446B",
"C  c #39476A",
"Z  c #3C4472",
"A  c #3D4976",
"S  c #454442",
"D  c #4A4543",
"F  c #4B4A45",
"G  c #4D4C4A",
"H  c #454747",
"J  c #534E4B",
"K  c #574C46",
"L  c #54524B",
"P  c #5A554C",
"I  c #575448",
"U  c #47465A",
"Y  c #584C5A",
"T  c #5D5C54",
"R  c #5A5856",
"E  c #4F5559",
"W  c #66584B",
"Q  c #76594A",
"!  c #645A56",
"~  c #785D54",
"^  c #684C45",
"/  c #63625C",
"(  c #6A655C",
")  c #6D695E",
"_  c #676256",
"`  c #786658",
"'  c #7C624D",
"]  c #434B6C",
"[  c #464968",
"{  c #585867",
"}  c #434B74",
"|  c #454C77",
" . c #4B5275",
".. c #4C537C",
"X. c #465178",
"o. c #55587A",
"O. c #534F6B",
"+. c #665D66",
"@. c #685A6D",
"#. c #6D6B64",
"$. c #6A6865",
"%. c #726C64",
"&. c #726E6A",
"*. c #796967",
"=. c #757265",
"-. c #74736C",
";. c #7A746B",
":. c #7B786D",
">. c #7A7673",
",. c #7D7B73",
"<. c #797977",
"1. c #6E6B74",
"2. c #5D616B",
"3. c #84503F",
"4. c #895B50",
"5. c #876A58",
"6. c #936A57",
"7. c #9A7559",
"8. c #89674F",
"9. c #866B65",
"0. c #847A6D",
"q. c #877669",
"w. c #977667",
"e. c #827D74",
"r. c #837D79",
"t. c #8B7B74",
"y. c #957D75",
"u. c #8D6D6E",
"i. c #A57B68",
"p. c #B07A6F",
"a. c #7D8079",
"s. c #9B836B",
"d. c #85827C",
"f. c #8B857C",
"g. c #888478",
"h. c #938B7E",
"j. c #988377",
"k. c #8B806E",
"l. c #A7846C",
"z. c #A78876",
"x. c #B58A75",
"c. c #B89479",
"v. c #AF8F76",
"b. c #C4977A",
"n. c #CB8F7B",
"m. c #4D5482",
"M. c #4B5686",
"N. c #535B85",
"B. c #545B89",
"V. c #565C94",
"C. c #495388",
"Z. c #5B638A",
"A. c #5B6496",
"S. c #666988",
"D. c #777B88",
"F. c #646A98",
"G. c #6B7398",
"H. c #747896",
"J. c #7A6E91",
"K. c #656DA6",
"L. c #6972A9",
"P. c #6D75B5",
"I. c #727BBA",
"U. c #5D6AA5",
"Y. c #847789",
"T. c #847BB4",
"R. c #7B818F",
"E. c #7A82B7",
"W. c #7B84C3",
"Q. c #8A8682",
"!. c #8D8A83",
"~. c #888887",
"^. c #928D84",
"/. c #928E89",
"(. c #988987",
"). c #949186",
"_. c #95928B",
"`. c #99958C",
"'. c #9D9A8D",
"]. c #999285",
"[. c #858599",
"{. c #9A9691",
"}. c #9D9A93",
"|. c #999998",
" X c #8F8E92",
".X c #A6988A",
"XX c #B89786",
"oX c #A29D94",
"OX c #A69C98",
"+X c #B29390",
"@X c #A5A194",
"#X c #A5A29B",
"$X c #AAA59B",
"%X c #ADA99D",
"&X c #AAA496",
"*X c #B3AA9C",
"=X c #BCA189",
"-X c #8B8EB0",
";X c #B19BAA",
":X c #9AA3B3",
">X c #ABA6A2",
",X c #AEAAA3",
"<X c #A9A9A5",
"1X c #B2ACA3",
"2X c #B4AAA6",
"3X c #BAB4A5",
"4X c #B5B2AB",
"5X c #BBB5AA",
"6X c #BEB9AC",
"7X c #B6B2A6",
"8X c #BBBAB4",
"9X c #A7A9B7",
"0X c #C59985",
"qX c #C8A48A",
"wX c #D6A889",
"eX c #CAA896",
"rX c #D5AC95",
"tX c #DBB598",
"yX c #CCB198",
"uX c #EAB194",
"iX c #C2BCAD",
"pX c #CAB3A8",
"aX c #D8B6A8",
"sX c #C2BDB3",
"dX c #C6BBB8",
"fX c #C8ACA0",
"gX c #E6B5A4",
"hX c #C6C2B5",
"jX c #C6C2BB",
"kX c #CAC5B9",
"lX c #D1C4B6",
"zX c #EBC7B2",
"xX c #8C90C7",
"cX c #A5ACC2",
"vX c #B5BACB",
"bX c #BAC2C8",
"nX c #CCCAC4",
"mX c #C7C6C5",
"MX c #D2CDC8",
"NX c #D7D3CB",
"BX c #C6CBD8",
"VX c #DAD8D5",
"CX c #CDD4D7",
"ZX c #E2DED7",
"AX c #E7E4DB",
"SX c #D4DBE7",
"DX c #C8CEE5",
"FX c #DDE4EB",
"GX c #E9E7E3",
"HX c #F1F2F0",
"JX c #D3B8C7",
/* pixels */
"#XNXZXMXVXMXMXNXMXNXNXNXGXVXVXAXGXGXGXGXGXGXGXVXnXZXZXZXVXVXVXNXNXnX4XnX,X}.`._.!.!.f.g.f.!.^./.> ~.H S #.!.^.}.}.}._.Q.#X4XmXHX",
"# 2XGX5X`.`.oX{.OXOX#XOXjXnX#X{.{.{.{.{.}.}.oX`.`.}.^./._._.!./.Q.f./.4X#X_.oXoX#X%X,X1X1X,X$XoX3  XR L ,.'.}.5X1XoXoX1XjXjXnXHX",
"2 /.4X}.Q.,.>.r.,.>.,.r.4XnX_.~.!._._.`.{.`.`._.oX$XoX$X,X1X,X,X5XjX2X6XZXVXVXVXNXNXNXNXNXMXnXjX1 /./ T d.}.oXsX7X#X>XsXnXsXjXHX",
"3 &.`.d./././.{.{.oX,X>XjXnX2XnXjXMXMXNXZXVXNXNXsXVXAXAXAXAXAXAXNXAXsX4XnXdX8X8XsX6X5X7X1X7X4X5X; /.&.T f.&XoXiX5X%X4XnXnX6XjXHX",
"F !.MXOX#X>X2X>X4X2X,X,XnXMX4XjXjXkXjXjXjXjXjXsX$XhXjXjXhXjXsX6X6X4X,XjX8X#X,X,X$X$X$X#XoXoX#X$X> ~.>.T f.%X@X5X5X@X$XkXjX,X6XHX",
"L &.sXoX>X#X>X>X#X,X2X>X8XnX2X4X7X4X4X4X4X5X5X,X#X1X$X$X%X%X$X$X%X}.}.sX,X}.}._.).)._._.^.^.^._.; d.,.P h.7X&X3XhX1X%XkXjX7XsXGX",
"R R 2X}.#XOXOXoX}.oX}.{.>XNX#X_.{.}.oX#XoXOX}.e.Q.}.}.#X@XoX'.'._.}.`.4X#X!./._.^.!.!.!.!.!.!.!.- ,.!.) ].6X%X6XkX6X%XhXsX6XsXAX",
"R J }././._./././.!.Q./._.NX}._.{././.d.#./ L = 3 #.Q.`.^._.).)._.d.`.8X#Xd.!.f.!.f.d.f.!.!.f.d.- <.`.:.@XhX*XhXkX7X@XhXsX1X6XHX",
"T 8 {.!._._._._._._.!.^._.NX{.d.Q.>.2 8 2 ; ; * - e e &.>./ !.d.d.~.~.8X|.,.,.e.,.e.e.e.d.d.d.e.- >.1X].3XMX6XiXlXhX$XkXsX1XkXAX",
"R 1 Q.d.^.^.^.^.^.!.f.Q.Q.nX#X<.$.= ; - n : = 2 2 ; 1 8 8 2 <.d.d.Q.~.8X}.d.f.Q.Q.Q.Q.!.!.!.!.Q.- -.#Xd.'.hX5XhXlXiX#XhXsX1X6XGX",
"R ; r.d././.^.^.^.^.Q.!.Q.nX2X&.1 * 2 = + X + 2 +   = = - 1 R ~.d.d.Q.8X}.,.d.f.d.f.f.f.Q.Q.f.d.- #.oX:.^.iX5XiXkXkX%X&X$X4XsXAX",
"T ; ,.!.`._._._././.!.!.Q.nX>XJ 2 ; + X . . . . .   . + = = - -.<.,.,.8X}.>.,.>.e.r.r.d.d.d.d.,.= $.#X,.g.hX6XiXkXkX$X.X#X,XhXGX",
"T - -.!._.^.).).^.^.f.Q.d.nX/.; ; ; = . @ @ $ $ . @ . @ o   - R -.-.>.4X}.-.>.>.,.,.e.e.d.d.r.,.- / #X,.e.hX6XiX6XhX&X1X4X%XsXAX",
"! - #.Q.!.!.^.^.h.^.f.f.r.nXQ.+ = + @ 0 ~ ` w.w.Q 0 $ @ . X ; n &.&.-.4X}.#.>.>.-.>.,.,.e.e.,.>.- R #X,.:.hX5XiXiXhXOX&X,XoXjXAX",
"/ = $.d.!.^.).^.^.^.f.f.r.dX}.# : + $ y.+XXXqXtXeXz.j.^ .   = R $.#.&.4X}./ -.-.-.>.>.,.e.r.,.>.- L OXe.;.hX5X6XiX5X$X1X4XOX6XAX",
"/ # T d.!.^._.!.^.!.Q.Q.>.5X2X: + @ Q z.5.8.u 4.x.XXy.y.0   - E R / #.4X}./ &.#.-.-.-.>.,.,.>.-.; J }.,.=.hX6XsXsXsX%Xf.f.oXjXAX",
"R - L f.h.h.h.)./.~.~.Q.r.2XeXt @ $ XXz.8.5.u u x.4.0 ^ : 8 D.-X9X|.$./.#X! #.-.=.-.:.:.>.,.,.>.; F }.g.) iXiXiX4X1X1X_ F #XsXGX",
"R = F g.h.h.h.)._.~.~.Q.e..XpXz.0 0 yXeX0X8.3.0XrX6.^ Q P G m cXBXE % o -.d.:.;.:.e.e.e.e.e.t.,.> F }.g.) sXiXiX$X1X1X! J oXjXAX",
"{ - D t.h.h.h.^.!./._.!.g..XyXXXw.6.wXrXuXuXuXwXgX0X4.Q 9 - a :XbXH - X $.f.j.j.t.t.g.t.t.t.t.e., e {.f.) iXiXiX&X1X4X!.d.}.sXAX",
"+.6 8 e.^.^.h.^.!.!.!.t.t..XpXeXx.b.c.0XwXuXwXp.p.p.0XXX! < M :XbXE o o ( (.t.t.t.t.t.t.0.0.q.0., 3 _.f.) 6XiX6X.X&X1X%X1X}.sXAX",
"+.6 4 ,.!.^.^.).).d.Q.f.e.(.3X*XaXc.v.b.wXwXuXn.4.3.0Xz.P < a |.CX&.# X P h.0.h.g.g.t.0.q.q.q.0.2 2 /.f.( 5XiX5X.X%X,XOX1X`.kXAX",
"$.1 1 >.Q.^.!.).^.f.^.!.f.^.>Xt.' 7.c.l.wXn.n.n.p.i.XXy.! * M |.VX].0 $ W k.0.0.0.t.t.e.0.0.q.0.3 1 /.f.! 7XiX3X%X5X1XoX,X`.jXZX",
"%., : -.f.!.f.).h.h.g.e.t./.2X0.' s.s.v.x.b.i.i.4.4.w.5.! * H dXaXzXzXaXqX6.q.q.0.0.>.>.<.>.>.;.5 1 /.d.P 7XiX7X&X&X%XoX,X_.sXAX",
"%., = -.f.!.f.^.f.].j.g.f.r.>Xf.q.v.5.z.v.qXqXi.4.9.9.^ ! 8 2 0.w.6.l.c.XXz.` ` *.=.;.-.&.&.&.#.2 > !.r.P 1XsX3X@XoX%XOX$X_.6XAX",
";.3 = &.d.Q.~.^.Q.(.f.Q.>.~.OXr.w.qXw.8.6.XXrXeXXXy.! W K , = ! OXW . 0 s.XXj.` q.` 0.=.;.=.) =.3 = !.e.I %XiX5XkX5X1X.X$X_.sXVX",
"r.2 o $.Q. X~.Q./.Q.r.r.Q.<.{.!.z.rXx.6.u Q 8.5.w.~ D ! j.t.t.*XlXOXq . 5.z.=Xy.9.q.` 0.=.=.=.( 3 = Q.d.P $X6X5XkXkX%Xf.oXd.7XAX",
"Y.5 % { D.~.~.Q.Q. XQ.<.d.,._.h.XXrXb.i.5.Q y 0 y t 9 9.pXaXaXlXyXaXaXXXrXgXeXz.5.q.) ;.-.-.&.$.5 # d.d.P @X6X3XkXsX%X`.#Xf.5XVX",
"D.1 % E >.Q.~.~.~.~.<.~.d.:.g.j.=XwXwXx.l.5.Q u ` ^ + 0 ^ q 0 u 8.4.4.x.x.wXrXeXw.` *.%.&.&.$.$.5 # ,.e.J @XiX7XsXsX1X`.oXd.6XZX",
"~.- o e #.d.d.R.~.D.<.<.-.>.oXfXqXqXrXc.z.5.' ` 9.K * Y ;X+X+XXXeXl.8.x.c.l.l.qX=X` ` %.( $.&./ 4 + >.^.P oX6X7XsXkX$X^.$Xf.4XZX",
"~.- X > / >.<.D.D.H.R.H.[.|.dXpXqXc.qXqXXXw.5.9.t.+.2 n Y.u.y..XXXXXrXrXtXtXl.v.eXz.Q _ ) %.#./ S o -.@X) '.3X3XsXsX$X/.{.,.4XNX",
"[.- o - { <.H.[.-X-XxX-X-XJ.;XJXXXc.0XXXz.w.u.t.*.G a U [ O   @ Q 0 q 7.c.x.b.0XqXqXw.` ` ) ! _ S o #.'._ ].3X3X5X5X1X/.;.T 4XZX",
" X< O < 2.[.-X-XE.W.W.xXxXT.J.Y..X+X*X+Xy.u.*.Y 6 l [ o.o.U a Y `.q.z.eXqXc.b.b.wX0XqXw.Q ` ) P e o / f.K h.3X1X5X6X&X/.Q.#.2XNX",
"|.7 O [ -XxXxXW.W.I.I.I.E.I.L.F.o.o.1.2.U n k i s c o. .] o.G.-X X(.(.y.w.w.c.qXqXqXqXXX5.` _ ! S o T f.K h.*X7X3X6X$Xf.OXd.,XNX",
"<X% p -XI.W.I.I.I.E.W.I.I.I.L.K.F.V...} V c v A | ..} o.o.o.o.O.{ { Y @.*.t.q.s.v.l.qX0Xw.Q _ P e o P d.I h.1X1X5X6X,Xg._.>.>XVX",
":X< S.E.E.A.P.K.P.I.I.W.I.P.L.P.K.A.F.F.N.B.V.C.m.N.X.N.N.m... .o.o.O.O.J.1.+.*.w.i.0X0Xz.` W K 8 # T !.P g.1X%X7X,X$XQ.{.>.OXNX",
"9XU H.Z.A.A.A.K.L.I.I.I.P.P.K.K.U.K.F.Z.A.V.V.V.m.X.m.m.m.m.] o...} ..m...] S.+.K w.p.x.x.w.W K > o I d.K 0.1X%X4X4X,X-.,.>.>XNX",
"vXo.S.Z.| A.Z.K.K.P.W.P.P.P.P.K.L.K.G.B.B.K.V.M.|  .N.m.V.m.} ..} Z C.C.v M.G.S.Y u.w.i.x.l.5.I r + r ,.J :.1X$X1X1X>X&.#.$.}.MX",
":Xo.F.B.m.M.Z.A.K.L.I.I.P.K.L.K.U.U.A.B.A.F.m...H.H.X.m.C.v | } A A C.z A V.Z.G.Y.(.y.z.i.l.s.` W + r g.I ;.1X$X4X5X2X!.e.>.>XNX",
"G.N.Z.N.m...M.A.L.K.P.P.K.K.G.A.K.K.C.B.L.o.Z.cXSXBXZ.m.C.A | C } Z X.s X.M.A.A.[.[.r.y.w.l.l.s._ X r f.I =.,X%XsXMXsX/.,./.dXNX",
"S.o.B.B...V ..Z.F.L.P.L.L.xX:XG.A.A.V.F. .o.BXHXFXBXS.m.v A Z A Z M.z h ....B.A.S.[.Y.9.z.w.s.z.j.$ r t.K =.%X$X4X6X&X`.;.%.OXnX",
"Z.Z.N...X.z | B.F.K.K.K.G.DXHXDXG.A.A.B.o.BXHXVXFXcXo.} z c Z Z } ..i i c ..m.B.B.S.J.*.w.z.l.z.v.` t 0.W %.%X,X5X5X7Xf.=.d.>XMX",
"Z.B.N.| ..f A B.A.A.L.K.Z.DXFXHXcX..Z. .9XHXVXGXSXR.] c V x V V } | b & c g f } ..[  X2Xu.l.i.v.v.s.q.0.W _ %X%X3XhX*X].;.) #XMX",
"F.....V m.s Z m.A.A.F.A.o.:XHXFXSXo. .o.DXFXVXVXH.B x g B m ] V  .j & & & i f f n 1.pXaXi.7.l.v.z.z.s.` I W @X'.@X&X@Xg.-.) !.8X",
"G. ...V X.s N | B.B.B.B.Z.S.CXCXSX[.U H.CXmXFX Xk g V V k m V V ] m < a O O i i Y (.+XtXb.6.7.l.l.l.z.5.t I '.'.&X%X%Xg.g.,._.jX",
"G. . .V } f x } | ..m.B.B. .D.SXFXvXU -XSXbXmX{ j Z c Z j m N } [ a M U E % % < +.(.c.tXwX7.7.i.x.z.z.y.r I _.}.@X5X&Xk.=.T /.nX",
"H. . .V V x j ] } } ..N... .[ cXDXSXD.9XBXSXD.i x Z z z N x Z X.] i M 4 &.w   X J ` v.c.wX7.6.w.l.l.z.j.r I ).).&X*X&Xk.%.J d.nX",
"H. ...} V j d ]  .V ....} } } o.o.O.{ BXCXCX{ k x C x z N N A | C p H S ( _ - 2 R W ` z.qXz.Q w.6.i.XX.XW r ).}.$X&X*Xk.;.T a.mX",
"R. .o. .] f d ] } V ..| Z } V B d l |.CXCXSX9Xm N f z z z Z A X.N p a e ) W J R R ! W ` j.y.5.~ 6.w.v.XXq.r ^.).@X*X&Xk.=.T ~.8X",
"R. .o. .] j s B } V ..| Z Z C B o.cXCXmXCX Xm B f x h g N N A X.f p a w / / F J L P P W ` q.9.~ 5.6.w.XXy.t t.].oX%X&X:.( $.a.8X",
"[.{ { [ [ c d } | V ..] c C C C [ vXBXBX9XM k i j x f j N V X.A f i a w T / F J L P P P W ! ` ` ~ 5.w.z.j.t t.f.oX&X@X,.( $.,.8X",
"4X<.1.Y n k i B } V ..] c C A C d 1.vXBXvXO.d j x x x x N A X.V d i a 4 T / H G J I P P I K W ~ Q ` 9.y.q.t g.h..X$X@Xe.#.#.,.4X",
"pXOX2XOXY.@.a [ ] V ..] c V C C B p m D.vX:Xd x x x x x N } | z d p a 5 L / H G L J P P P K P W ` W W ` W 9 e.g.].@X@Xe.%.#.,.4X",
"aXXXfXaXpX;XY m [ B o.] x B C N k j U p m :XZ.f x z x x N } A f s p a 5 L / H G G G J I P P K K t $ @ I 3 e d.d.).oXoXe.) ( ;.7X",
"tX0XrXeXeX.XJ U [ ] o.V j B C N N j B B d ] H.g x z x x C | C h s p a 5 G / S G G L L J J I K K I # X P 3 e ,.,.).'.oX0.) / -.1X",
"uXb.wXqXqXj.n U [ ] o.V j B C N x N j B j m f N x z x x V | x s s p 5 1 G / S H F G J J J J J K r # X L > 3 -.,.).'.'.:.) / -.,X",
"uXb.wXb.c.5.2 U [ V ..B j V C j g x N x N N B x x z x x V } f s d p 5 1 F / S S F F F G L L J F F - X F 4 4 &.,.^.].].;.( _ =.,X",
"zXb.wXb.l.u 2 U [ C ..x x B N N g z N x g N N x x x z V | V d i i p 6 > e / H S S F F G G J F F D - X F 2 3 -.,.^.^.].0._ T -.#X",
"zXqXtXqXw.0 2 U B C ..j j j j x g f x x z x x g x x x Z | N h i p p 6 > w T n 4 e S F F G G F F F ; X F 2 3 -.,.f.].^.;.( / ( ,X",
"zXrXtXwXw.0 6 U B A ..g j j j x g f x x z x j j z z c } } x s i p p - > 4 / S 8 S S D F G G F D F ; X H 2 8 &.;.f.].^.=._ / T #X",
"zXeXtXrXv.^ ; U B } ..g j j c x j f x x x x j x g f c | A f i p d p - > 1 T 8 4 D e e D F G F D D ; X H 4 8 %.;.f.h.^.;.! T $.|.",
"zXqXtXtXqX5.= U B }  .k j j B x g f x x x x j j g f V } c s i d k p - > 3 / S 8 e e e F F G G F D > + H 8 8 %.;.f.f.h.t.=.P $._.",
"zXXXtXtXrXs.: U [  . .k j k c j d d x x x x j j g j Z } x s s d d l - > > T S 8 e r r F F F F D F 3 = S 4 4 #.;.f.^.f.f._.R T _.",
"aXx.wXtXtXXXK n U ] ] k j k c g d d x x x x j k f x A Z z s d d k < - > , P 8 2 3 8 e e e e e e 3 - o 3 1 1 T ) :.g.e.0.^.( R Q.",
"aXi.b.wXwXeX~ n n [ [ d k k c g h d N x x x j k d x } Z s s d p k l 1 3 r ) R P ! / #.&.-.-.>.,.,.&.$.~.Q.Q.,X7X6XkXlXsXnXnX8XNX"
};
